<svg xmlns="http://www.w3.org/2000/svg" id="_x31__x2C_5" enable-background="new 0 0 36 36" height="512" viewBox="0 0 36 36" width="512" class=""><g><g><g><g><path d="m27.623 4.167c-6.917 0-11.667-3.583-15-3.583s-10.333 1.916-10.333 17.249 9.417 17.583 13.083 17.583c17.167.001 24.5-31.249 12.25-31.249z" fill="#efefef" data-original="#EFEFEF" class=""></path></g><g><path d="m30.5 5c-.827 0-1.5-.673-1.5-1.5s.673-1.5 1.5-1.5 1.5.673 1.5 1.5-.673 1.5-1.5 1.5zm0-2c-.276 0-.5.225-.5.5s.224.5.5.5.5-.225.5-.5-.224-.5-.5-.5z" fill="#a4afc1" data-original="#A4AFC1" class=""></path></g><g><path d="m27.25 28.25h-18.5c-1.105 0-2-.895-2-2v-15h22.5v15c0 1.105-.895 2-2 2z" fill="#f3f3f1" data-original="#F3F3F1" class=""></path></g><g><path d="m29.25 11.25h-22.5v-1.5c0-1.105.895-2 2-2h18.5c1.105 0 2 .895 2 2z" fill="#2fdf84" data-original="#E20000" class="active-path" style="fill:#FF5C5C" data-old_color="#2fdf84"></path></g><g><path d="m11 7.75h-2.25c-1.105 0-2 .895-2 2v1.5h2.25v-1.5c0-1.105.895-2 2-2z" fill="#00b871" data-original="#E20000" class="active-path" style="fill:#FF5C5C" data-old_color="#00b871"></path></g><g><path d="m9 26.25v-15h-2.25v15c0 1.105.895 2 2 2h2.25c-1.105 0-2-.895-2-2z" fill="#d5dbe1" data-original="#D5DBE1"></path></g><g><path d="m9.5 15h1.5v6h-1.5z" data-original="#000000" class="" style="fill:#000000" data-old_color="#000000"></path></g><g><path d="m25 15h1.5v6h-1.5z" data-original="#000000" class="" style="fill:#000000" data-old_color="#000000"></path></g><g><path d="m15.25 21h-1c-.965 0-1.75-.785-1.75-1.75v-2.5c0-.965.785-1.75 1.75-1.75h1c.965 0 1.75.785 1.75 1.75v2.5c0 .965-.785 1.75-1.75 1.75zm-1-4.5c-.138 0-.25.112-.25.25v2.5c0 .138.112.25.25.25h1c.138 0 .25-.112.25-.25v-2.5c0-.138-.112-.25-.25-.25z" data-original="#000000" class="" style="fill:#000000" data-old_color="#000000"></path></g><g><path d="m21.75 21h-1c-.965 0-1.75-.785-1.75-1.75v-2.5c0-.965.785-1.75 1.75-1.75h1c.965 0 1.75.785 1.75 1.75v2.5c0 .965-.785 1.75-1.75 1.75zm-1-4.5c-.138 0-.25.112-.25.25v2.5c0 .138.112.25.25.25h1c.138 0 .25-.112.25-.25v-2.5c0-.138-.112-.25-.25-.25z" data-original="#000000" class="" style="fill:#000000" data-old_color="#000000"></path></g><g><path d="m21.5 23h1.5v6h-1.5z" data-original="#000000" class="" style="fill:#000000" data-old_color="#000000"></path></g><g><path d="m18.25 29h-1c-.965 0-1.75-.785-1.75-1.75v-2.5c0-.965.785-1.75 1.75-1.75h1c.965 0 1.75.785 1.75 1.75v2.5c0 .965-.785 1.75-1.75 1.75zm-1-4.5c-.138 0-.25.112-.25.25v2.5c0 .138.112.25.25.25h1c.138 0 .25-.112.25-.25v-2.5c0-.138-.112-.25-.25-.25z" data-original="#000000" class="" style="fill:#000000" data-old_color="#000000"></path></g><g><path d="m12.25 29h-1c-.965 0-1.75-.785-1.75-1.75v-2.5c0-.965.785-1.75 1.75-1.75h1c.965 0 1.75.785 1.75 1.75v2.5c0 .965-.785 1.75-1.75 1.75zm-1-4.5c-.138 0-.25.112-.25.25v2.5c0 .138.112.25.25.25h1c.138 0 .25-.112.25-.25v-2.5c0-.138-.112-.25-.25-.25z" data-original="#000000" class="" style="fill:#000000" data-old_color="#000000"></path></g><g><path d="m25 23h1.5v6h-1.5z" data-original="#000000" class="" style="fill:#000000" data-old_color="#000000"></path></g><g><path d="m30 28h-1.5v-18.25c0-.689-.561-1.25-1.25-1.25h-18.5c-.689 0-1.25.561-1.25 1.25v18.25h-1.5v-18.25c0-1.517 1.233-2.75 2.75-2.75h18.5c1.517 0 2.75 1.233 2.75 2.75z" data-original="#000000" class="" style="fill:#000000" data-old_color="#000000"></path></g><g><path d="m6.75 10.5h22.5v1.5h-22.5z" data-original="#000000" class="" style="fill:#000000" data-old_color="#000000"></path></g></g></g></g> </svg>